<?xml version="1.0" encoding="UTF-8"?> <svg id="Layer_1" data-name="Layer 1" xmlns="http://www.w3.org/2000/svg" xmlns:xlink="http://www.w3.org/1999/xlink" viewBox="0 0 585.45 546.8"> <defs> <style> .cls-1 { fill: #8bc248; } .cls-2 { fill: #343636; } .cls-3 { stroke: #343636; stroke-width: 4px; } .cls-3, .cls-4, .cls-5, .cls-6 { fill: none; } .cls-3, .cls-4, .cls-5, .cls-7 { stroke-miterlimit: 10; } .cls-4, .cls-5, .cls-6, .cls-7 { stroke: #fff; } .cls-4, .cls-6 { stroke-width: 5px; } .cls-8 { fill: url(#linear-gradient-2); } .cls-9 { fill: url(#linear-gradient); } .cls-10 { fill: #f1f0f0; } .cls-11 { fill: #747377; } .cls-12, .cls-7 { fill: #fff; } .cls-6 { stroke-linecap: round; stroke-linejoin: round; } .cls-13 { fill: #c3c5ca; } .cls-14 { fill: #afaeb2; } </style> <linearGradient id="linear-gradient" x1="67.04" y1="171.56" x2="517.88" y2="171.56" gradientUnits="userSpaceOnUse"> <stop offset="0" stop-color="#478fcc"/> <stop offset="1" stop-color="#8bc249"/> </linearGradient> <linearGradient id="linear-gradient-2" x1="90.2" y1="442.23" x2="495.26" y2="442.23" xlink:href="#linear-gradient"/> </defs> <g> <path class="cls-2" d="M448.79,6.01l-1.52,6.28h.02s-.16,12.92-.16,12.92l-11.26,6.32-5.55-3.3-5.55-3.3.16-12.91,11.26-6.32h.02s4.78-4.33,4.78-4.33c-10.46-3.75-22.45.3-28.34,10.22-4.65,7.83-5.12,18.7-1.18,26.84l-13.32,22.44c1.13.2,2.74-.23,3.49.68,3.18,3.91,12.28,5.68,15.62,10.23l13.13-22.12c9.03-.44,18.34-6.05,22.99-13.89,5.89-9.92,3.7-22.38-4.6-29.77Z"/> <path class="cls-2" d="M405.57,91.5c-4.56-1.8-8.44-4.44-12.51-7.24-2.15-1.48-4.34-2.66-6.58-3.72l-29.27,49.32c-8.4,1.16-17.04,6.96-21.22,14.01-6.23,10.49-2.77,24.05,7.72,30.28,10.49,6.23,24.05,2.77,30.28-7.72,4.18-7.05,5.14-17.41,2.14-25.34l29.44-49.59ZM367.93,162.83l-13.12,7.37-12.94-7.68.18-15.05,13.12-7.37,12.94,7.68-.18,15.05Z"/> <path class="cls-2" d="M393.06,84.26c-.1-.07-.2-.13-.3-.2l-27.7,46.66,6.55,3.89,27.52-46.36c-2.05-1.24-4.03-2.59-6.07-3.99Z"/> <path class="cls-2" d="M411.48,67.45l12.86-21.66-6.55-3.89-13.1,22.07c2.02,1.21,4.49,2.28,6.8,3.47Z"/> </g> <g> <path class="cls-2" d="M437.95,108.1c-2.73.03-5.39-.39-7.76-1.73-2.22-1.25-3.86-3.15-5.42-5.11-.31-.39-.64-.89-1-1.4-.53-.19-1.07-.49-1.62-.91-.41-.32-.81-.63-1.22-.95h0s-.02-.01-.03-.02c-.75-.59-1.5-1.19-2.22-1.84-.05-.04-.08-.09-.12-.13l-36.52,33.33c-8.76-2.21-19.31.45-26.04,6.59-8.52,7.77-10.05,20.33-4.26,29.82l3.28-5.56-.02-.02,3.91-12.31,12.61-2.77,8.7,9.54-3.91,12.31-12.61,2.77-.02-.02-5.84,2.76c8.92,6.63,21.57,6.25,30.08-1.53,6.73-6.14,10.34-16.4,8.94-25.33l41.08-37.49Z"/> <path class="cls-2" d="M501.21,35.47c-8.23-9.01-22.2-9.65-31.22-1.42-6.05,5.53-9.98,15.16-9.42,23.62l-26.35,24.05c6.44,3.52,11.62,9.35,16.08,15.12l25.11-22.92c8.38,1.33,18.32-1.7,24.38-7.23,9.01-8.23,9.65-22.2,1.42-31.22ZM495.04,61.49l-14.7,3.23-10.15-11.12,4.55-14.34,14.7-3.23,10.15,11.12-4.55,14.34Z"/> <path class="cls-2" d="M445.71,91.28l22.43-20.47-5.13-5.62-22.73,20.75c1.93,1.64,3.73,3.45,5.43,5.35Z"/> <path class="cls-2" d="M424.77,101.27c-.17-.21-.34-.45-.52-.71l-37.53,34.25,5.13,5.62,37.75-34.45c-1.92-1.24-3.42-2.94-4.83-4.72Z"/> </g> <g id="Object"> <g> <path class="cls-2" d="M187.32,498.94c-2.55-1.36-5.08-2.25-7.43-3.88-7.75,6.42-18.76,8.33-28.58,3.96-12.72-5.67-18.93-19.83-15.03-32.82-.55-.37-1-.84-1.37-1.36-1.08-.49-1.9-1.29-2.44-2.25-3.91-2.17-7.45-5.29-10.66-8.45-7.11,14.09-6.58,31.52,2.9,45.46,13.89,20.45,41.84,25.78,62.28,11.88,3.21-2.18,6.05-4.71,8.5-7.5-2.77-1.58-5.35-3.54-8.17-5.04Z"/> <path class="cls-2" d="M198.87,449.19c-11.79-17.35-33.67-23.79-52.52-16.87,3.72,3.87,6.61,8.08,9.52,12.71,1.47-.61,3.23-.59,5.03.52.63.39,1.24.81,1.87,1.21,3.46,0,6.96.66,10.29,2.06,7.58,3.19,12.92,9.38,15.32,16.57,5.32,4.09,10.68,8.13,16.27,11.86.43-.09.89-.14,1.38-.15.17,0,.33,0,.5,0,.59-9.57-1.85-19.39-7.65-27.92Z"/> <path class="cls-2" d="M210.72,510.36c-.93-.26-1.7-.73-2.31-1.34-.03,0-.06,0-.09,0-2.56,0-4.25-1.31-5.13-3.06-1.12-.04-2.08-.34-2.86-.82-1.02-.1-1.89-.4-2.61-.87-2.73,3.3-5.93,6.29-9.65,8.82-21.34,14.49-50.49,8.94-64.98-12.4-10.22-15.04-10.46-33.95-2.24-48.89-.58-.42-1.1-.96-1.54-1.64-.58-.63-.99-1.39-1.25-2.2-1.57-.64-2.63-1.9-3.13-3.39-2.53-.5-3.99-2.43-4.4-4.61l-11.31-1.99c-1.32,2.25-2.52,4.57-3.58,7-1.08,2.43-2.02,4.89-2.81,7.36l9.9,7.75c-.79,3.24-1.3,6.51-1.55,9.75l-11.79,4.31c-.01,5.28.53,10.51,1.64,15.6l12.45,1.77c.92,3.17,2.1,6.22,3.54,9.21l-8.08,9.65c2.61,4.52,5.69,8.8,9.24,12.71l11.64-4.7c2.36,2.26,4.94,4.32,7.69,6.2l-2.15,12.4c2.23,1.3,4.57,2.5,6.99,3.58,2.43,1.08,4.87,2,7.36,2.79l7.73-9.89c3.24.79,6.51,1.3,9.76,1.56l4.31,11.79c5.29.02,10.53-.53,15.62-1.65l1.77-12.46c3.14-.92,6.22-2.09,9.2-3.52l9.63,8.07c4.55-2.61,8.8-5.69,12.73-9.24l-4.69-11.63c1.76-1.87,3.4-3.9,4.95-6.01Z"/> <path class="cls-2" d="M232.53,459.04l-12.46-1.75c-.92-3.16-2.11-6.24-3.52-9.21l8.07-9.65c-2.6-4.53-5.7-8.79-9.25-12.68l-11.64,4.66c-2.36-2.25-4.93-4.31-7.68-6.18l2.17-12.37c-2.23-1.3-4.57-2.53-7.01-3.6-2.42-1.08-4.88-2.01-7.34-2.81l-7.75,9.9c-3.24-.78-6.5-1.31-9.76-1.56l-4.3-11.78c-5.29-.03-10.52.54-15.63,1.64l-1.76,12.45c-3.16.93-6.23,2.13-9.2,3.54l-3.6-3.01c.56.64,1.12,1.28,1.66,1.94,2.68,3.3,4.8,6.74,8.14,9.44,1.13.91,2.17,1.85,3.17,2.8,19.85-7.73,43.17-1.07,55.65,17.29,6.03,8.87,8.57,19.08,7.97,29.03,4.85.14,9.66.75,14.42,1.67l11.31-4.12c.01-5.29-.54-10.53-1.65-15.64Z"/> </g> </g> <path class="cls-9" d="M517.7,288.56c.12-2.95.18-5.59.18-8.57,0-124.5-100.92-225.42-225.42-225.42s-225.42,100.92-225.42,225.42c0,2.99,0,5.62.11,8.57"/> <path class="cls-8" d="M90.2,379.05c36.5,75.31,113.24,126.36,202.54,126.36s166.08-50.89,202.52-126.36"/> <g> <path class="cls-2" d="M57.36,355.47h-13.98c-2.02,0-3.46-.45-4.32-1.36s-1.29-2.35-1.29-4.32v-34.39c0-2.02.44-3.47,1.33-4.35.88-.88,2.31-1.33,4.29-1.33h14.82c2.18,0,4.08.14,5.68.41,1.6.27,3.04.79,4.31,1.56,1.08.64,2.04,1.46,2.87,2.45s1.47,2.08,1.9,3.28.66,2.46.66,3.79c0,4.58-2.29,7.93-6.87,10.05,6.01,1.91,9.02,5.64,9.02,11.17,0,2.56-.66,4.86-1.97,6.91-1.31,2.05-3.08,3.56-5.31,4.54-1.39.58-3,.99-4.81,1.23-1.81.24-3.92.36-6.34.36ZM47.03,316.68v11.83h8.49c2.31,0,4.09-.22,5.35-.66,1.26-.44,2.22-1.27,2.89-2.5.52-.87.78-1.85.78-2.93,0-2.31-.82-3.84-2.47-4.6s-4.15-1.14-7.52-1.14h-7.52ZM56.67,335.16h-9.64v13.36h9.96c6.26,0,9.39-2.26,9.39-6.77,0-2.31-.81-3.98-2.43-5.02-1.62-1.04-4.05-1.56-7.27-1.56Z"/> <path class="cls-2" d="M113.77,351.45v-1.09c-1.02,1.29-2.09,2.37-3.21,3.25-1.12.87-2.35,1.52-3.68,1.95-1.33.43-2.85.64-4.56.64-2.06,0-3.91-.43-5.54-1.28-1.63-.85-2.9-2.03-3.79-3.53-1.06-1.81-1.59-4.41-1.59-7.8v-16.88c0-1.71.38-2.98,1.15-3.82.77-.84,1.79-1.26,3.06-1.26s2.33.43,3.12,1.28c.79.85,1.19,2.12,1.19,3.81v13.64c0,1.98.17,3.64.5,4.98.33,1.34.93,2.39,1.79,3.15.86.76,2.03,1.14,3.51,1.14s2.79-.43,4.06-1.28c1.27-.85,2.2-1.97,2.78-3.34.48-1.21.72-3.85.72-7.93v-10.36c0-1.69.4-2.95,1.19-3.81.79-.85,1.82-1.28,3.09-1.28s2.29.42,3.06,1.26c.77.84,1.15,2.12,1.15,3.82v24.69c0,1.62-.37,2.84-1.11,3.65-.74.81-1.69,1.22-2.86,1.22s-2.13-.42-2.89-1.26c-.76-.84-1.14-2.02-1.14-3.54Z"/> <path class="cls-2" d="M166.11,345.11c0,2.35-.57,4.36-1.72,6.04-1.14,1.67-2.83,2.94-5.07,3.81-2.24.86-4.96,1.29-8.16,1.29s-5.68-.47-7.86-1.4-3.8-2.11-4.84-3.51c-1.04-1.41-1.56-2.81-1.56-4.23,0-.94.33-1.74,1-2.4.67-.67,1.51-1,2.53-1,.89,0,1.58.22,2.06.66.48.44.94,1.05,1.37,1.84.87,1.52,1.92,2.65,3.14,3.4s2.88,1.12,4.98,1.12c1.71,0,3.11-.38,4.2-1.14s1.64-1.63,1.64-2.61c0-1.5-.57-2.59-1.7-3.28-1.13-.69-3-1.34-5.6-1.97-2.93-.73-5.32-1.49-7.16-2.29s-3.31-1.86-4.42-3.17c-1.1-1.31-1.65-2.92-1.65-4.84,0-1.71.51-3.32,1.53-4.84,1.02-1.52,2.52-2.73,4.51-3.64,1.99-.91,4.38-1.36,7.19-1.36,2.21,0,4.19.23,5.95.69,1.76.46,3.23,1.07,4.4,1.84,1.17.77,2.07,1.62,2.68,2.56.61.94.92,1.85.92,2.75,0,.98-.33,1.78-.98,2.4-.66.62-1.59.94-2.79.94-.87,0-1.62-.25-2.23-.75-.61-.5-1.32-1.25-2.11-2.25-.65-.83-1.4-1.5-2.28-2-.87-.5-2.06-.75-3.56-.75s-2.82.33-3.84.98c-1.02.66-1.53,1.47-1.53,2.45,0,.89.37,1.63,1.12,2.2s1.76,1.04,3.03,1.42c1.27.37,3.02.83,5.24,1.37,2.64.64,4.8,1.42,6.48,2.31s2.94,1.95,3.81,3.17c.86,1.22,1.3,2.61,1.3,4.17Z"/> <path class="cls-1" d="M213.54,315.03l10.36,30.68,10.39-30.9c.54-1.62.95-2.75,1.22-3.39.27-.63.72-1.21,1.34-1.72.62-.51,1.48-.76,2.56-.76.79,0,1.52.2,2.2.59.68.4,1.21.92,1.59,1.58.38.66.58,1.32.58,1.98,0,.46-.06.95-.19,1.48-.12.53-.28,1.05-.47,1.56-.19.51-.37,1.04-.56,1.58l-11.08,29.9c-.4,1.14-.79,2.23-1.19,3.26-.4,1.03-.85,1.94-1.37,2.72-.52.78-1.21,1.42-2.08,1.92-.86.5-1.92.75-3.17.75s-2.3-.25-3.17-.73c-.86-.49-1.56-1.13-2.09-1.93-.53-.8-.99-1.71-1.39-2.73-.4-1.02-.79-2.1-1.19-3.25l-10.89-29.65c-.19-.54-.38-1.07-.58-1.59-.2-.52-.36-1.08-.5-1.69s-.2-1.11-.2-1.53c0-1.06.43-2.03,1.28-2.9s1.92-1.31,3.21-1.31c1.58,0,2.7.48,3.35,1.45.66.97,1.33,2.51,2.01,4.63Z"/> <path class="cls-1" d="M287.3,338.93c0,2.54-.4,4.88-1.19,7.02-.79,2.14-1.94,3.98-3.43,5.52-1.5,1.54-3.29,2.72-5.37,3.54-2.08.82-4.42,1.23-7.02,1.23s-4.9-.42-6.96-1.25c-2.06-.83-3.84-2.02-5.35-3.57-1.51-1.55-2.65-3.38-3.43-5.49-.78-2.11-1.17-4.45-1.17-7.01s.4-4.94,1.19-7.08,1.92-3.97,3.4-5.49c1.48-1.52,3.27-2.69,5.37-3.51,2.1-.82,4.42-1.23,6.96-1.23s4.92.42,7.02,1.25,3.9,2.02,5.4,3.56c1.5,1.54,2.64,3.37,3.42,5.49.78,2.12,1.17,4.46,1.17,7.02ZM278.75,338.93c0-3.47-.76-6.18-2.29-8.11-1.53-1.93-3.58-2.9-6.16-2.9-1.66,0-3.13.43-4.4,1.29-1.27.86-2.25,2.14-2.93,3.82s-1.03,3.65-1.03,5.9.34,4.17,1.01,5.84c.68,1.67,1.64,2.94,2.9,3.82,1.26.88,2.74,1.33,4.45,1.33,2.58,0,4.63-.97,6.16-2.92,1.53-1.95,2.29-4.63,2.29-8.07Z"/> <path class="cls-1" d="M302.45,351.07v-36.95c0-1.71.38-3,1.14-3.87.76-.87,1.78-1.31,3.07-1.31s2.33.43,3.12,1.3,1.19,2.16,1.19,3.89v36.95c0,1.73-.4,3.02-1.2,3.89s-1.84,1.29-3.11,1.29-2.26-.45-3.04-1.34c-.78-.89-1.17-2.17-1.17-3.84Z"/> <path class="cls-2" d="M372.75,355.47h-13.98c-2.02,0-3.46-.45-4.32-1.36-.86-.91-1.3-2.35-1.3-4.32v-34.39c0-2.02.44-3.47,1.33-4.35.88-.88,2.31-1.33,4.29-1.33h14.82c2.18,0,4.08.14,5.68.41s3.04.79,4.31,1.56c1.08.64,2.04,1.46,2.87,2.45.83.99,1.47,2.08,1.9,3.28.44,1.2.66,2.46.66,3.79,0,4.58-2.29,7.93-6.87,10.05,6.01,1.91,9.02,5.64,9.02,11.17,0,2.56-.66,4.86-1.97,6.91-1.31,2.05-3.08,3.56-5.31,4.54-1.39.58-3,.99-4.81,1.23-1.81.24-3.92.36-6.34.36ZM362.42,316.68v11.83h8.49c2.31,0,4.09-.22,5.35-.66,1.26-.44,2.22-1.27,2.89-2.5.52-.87.78-1.85.78-2.93,0-2.31-.82-3.84-2.46-4.6-1.64-.76-4.15-1.14-7.52-1.14h-7.52ZM372.06,335.16h-9.64v13.36h9.96c6.26,0,9.39-2.26,9.39-6.77,0-2.31-.81-3.98-2.43-5.02-1.62-1.04-4.05-1.56-7.27-1.56Z"/> <path class="cls-2" d="M411.33,317.65c-1.19,0-2.2-.36-3.04-1.09-.84-.73-1.26-1.76-1.26-3.09,0-1.21.43-2.2,1.29-2.98s1.87-1.17,3.01-1.17,2.08.35,2.93,1.06c.85.71,1.28,1.74,1.28,3.09s-.42,2.34-1.25,3.07c-.83.74-1.82,1.11-2.96,1.11ZM415.55,326.45v24.62c0,1.71-.41,3-1.22,3.87s-1.84,1.31-3.09,1.31-2.26-.45-3.04-1.34c-.78-.89-1.17-2.17-1.17-3.84v-24.37c0-1.69.39-2.95,1.17-3.81.78-.85,1.79-1.28,3.04-1.28s2.28.43,3.09,1.28,1.22,2.04,1.22,3.56Z"/> <path class="cls-2" d="M454.01,352.35l-7.52-12.36-4.62,4.37v6.77c0,1.64-.43,2.91-1.29,3.79-.86.88-1.86,1.33-2.98,1.33-1.31,0-2.34-.44-3.09-1.31s-1.12-2.16-1.12-3.87v-36.33c0-1.89.36-3.33,1.09-4.32.73-.99,1.77-1.48,3.12-1.48s2.35.45,3.12,1.34,1.16,2.22,1.16,3.96v20.66l9.58-10.05c1.19-1.25,2.09-2.1,2.71-2.56.62-.46,1.38-.69,2.28-.69,1.06,0,1.95.34,2.65,1.01.71.68,1.06,1.52,1.06,2.54,0,1.25-1.15,2.91-3.46,4.99l-4.53,4.15,8.74,13.73c.64,1.02,1.11,1.79,1.39,2.33.28.53.42,1.04.42,1.51,0,1.35-.37,2.42-1.11,3.2-.74.78-1.71,1.17-2.92,1.17-1.04,0-1.84-.28-2.4-.84-.56-.56-1.32-1.58-2.28-3.06Z"/> <path class="cls-2" d="M499.21,341.02h-16.67c.02,1.94.41,3.64,1.17,5.12.76,1.48,1.77,2.59,3.03,3.34s2.65,1.12,4.17,1.12c1.02,0,1.95-.12,2.79-.36.84-.24,1.66-.61,2.45-1.12s1.52-1.06,2.18-1.64,1.53-1.37,2.59-2.37c.44-.38,1.06-.56,1.87-.56.87,0,1.58.24,2.12.72s.81,1.15.81,2.03c0,.77-.3,1.67-.9,2.7-.6,1.03-1.51,2.02-2.73,2.96-1.22.95-2.75,1.73-4.59,2.36-1.84.62-3.96.94-6.35.94-5.47,0-9.73-1.56-12.76-4.68s-4.56-7.35-4.56-12.7c0-2.52.38-4.85,1.12-7.01s1.84-4,3.28-5.54c1.44-1.54,3.2-2.72,5.31-3.54,2.1-.82,4.43-1.23,6.99-1.23,3.33,0,6.18.7,8.57,2.11,2.38,1.4,4.17,3.22,5.35,5.45,1.19,2.23,1.78,4.49,1.78,6.8,0,2.14-.61,3.53-1.84,4.17s-2.95.95-5.18.95ZM482.54,336.19h15.45c-.21-2.91-.99-5.09-2.36-6.54-1.36-1.45-3.16-2.17-5.38-2.17s-3.87.73-5.23,2.2-2.19,3.64-2.48,6.51Z"/> <path class="cls-2" d="M549.28,345.11c0,2.35-.57,4.36-1.72,6.04-1.14,1.67-2.84,2.94-5.07,3.81s-4.96,1.29-8.16,1.29-5.68-.47-7.86-1.4-3.8-2.11-4.84-3.51c-1.04-1.41-1.56-2.81-1.56-4.23,0-.94.33-1.74,1-2.4.67-.67,1.51-1,2.53-1,.89,0,1.58.22,2.06.66s.94,1.05,1.37,1.84c.87,1.52,1.92,2.65,3.14,3.4s2.88,1.12,4.98,1.12c1.71,0,3.11-.38,4.2-1.14,1.09-.76,1.64-1.63,1.64-2.61,0-1.5-.57-2.59-1.7-3.28-1.13-.69-3-1.34-5.6-1.97-2.93-.73-5.32-1.49-7.16-2.29-1.84-.8-3.31-1.86-4.42-3.17-1.1-1.31-1.65-2.92-1.65-4.84,0-1.71.51-3.32,1.53-4.84s2.52-2.73,4.51-3.64c1.99-.91,4.38-1.36,7.19-1.36,2.21,0,4.19.23,5.95.69,1.76.46,3.22,1.07,4.4,1.84,1.18.77,2.07,1.62,2.68,2.56.61.94.92,1.85.92,2.75,0,.98-.33,1.78-.98,2.4s-1.59.94-2.79.94c-.87,0-1.62-.25-2.23-.75-.61-.5-1.32-1.25-2.11-2.25-.64-.83-1.4-1.5-2.28-2-.87-.5-2.06-.75-3.56-.75s-2.82.33-3.84.98-1.53,1.47-1.53,2.45c0,.89.38,1.63,1.12,2.2s1.76,1.04,3.03,1.42c1.27.37,3.02.83,5.24,1.37,2.64.64,4.8,1.42,6.48,2.31s2.94,1.95,3.81,3.17c.86,1.22,1.29,2.61,1.29,4.17Z"/> </g> <path class="cls-2" d="M383.96,59.08c88.91,34.55,151.41,125.21,150.66,220.9.04,3.05.03,5.53-.06,8.57h.77c.1-3.04.14-5.52.13-8.57,1.33-96.67-59.36-190.08-148.82-227.38C225.04-16.15,45.55,104.87,46.5,279.98c-.02,3.36,0,5.24.13,8.58h6.76c-.11-3.19-.15-5.35-.14-8.57C53.89,110.35,227.19-4.2,383.96,59.08Z"/> <path class="cls-2" d="M67.65,379.05c38.19,86.95,125.19,146.79,224.81,145.63,98.11.34,183.88-60.35,221.96-145.63h-1.11c-25.27,55.46-71.24,100.98-128.61,123.62-125.39,51.17-260.38-9.9-310.54-123.62"/> <g> <path class="cls-12" d="M193.11,438.18c0,1.51-.39,2.88-1.17,4.08-.78,1.21-1.92,2.15-3.42,2.83-1.5.68-3.28,1.02-5.35,1.02-2.47,0-4.51-.47-6.11-1.4-1.14-.67-2.06-1.57-2.77-2.69-.71-1.12-1.07-2.21-1.07-3.27,0-.61.21-1.14.64-1.58.43-.44.97-.66,1.63-.66.54,0,.99.17,1.36.51.37.34.69.85.95,1.52.32.8.66,1.46,1.03,2,.37.54.89.98,1.56,1.32.67.35,1.55.52,2.65.52,1.5,0,2.72-.35,3.66-1.05.94-.7,1.41-1.57,1.41-2.62,0-.83-.25-1.51-.76-2.02-.51-.52-1.16-.91-1.96-1.19-.8-.27-1.88-.56-3.22-.87-1.8-.42-3.3-.91-4.52-1.48-1.21-.56-2.17-1.33-2.89-2.31s-1.07-2.18-1.07-3.63.38-2.6,1.13-3.67c.75-1.07,1.84-1.89,3.26-2.47,1.42-.58,3.1-.86,5.02-.86,1.54,0,2.87.19,3.99.57,1.12.38,2.05.89,2.79,1.52.74.63,1.28,1.29,1.62,1.99.34.69.51,1.37.51,2.03,0,.6-.21,1.15-.64,1.63-.43.48-.96.73-1.6.73-.58,0-1.02-.15-1.32-.44s-.63-.77-.98-1.43c-.46-.95-1-1.68-1.64-2.21s-1.66-.79-3.07-.79c-1.31,0-2.37.29-3.17.86-.8.58-1.2,1.27-1.2,2.08,0,.5.14.93.41,1.3.27.36.65.68,1.13.94.48.26.96.47,1.45.61.49.15,1.3.36,2.42.65,1.41.33,2.69.69,3.83,1.09s2.12.88,2.92,1.45,1.43,1.29,1.88,2.16.67,1.94.67,3.2Z"/> <path class="cls-12" d="M204.07,425c-.65,0-1.2-.2-1.66-.6-.46-.4-.69-.96-.69-1.69,0-.66.24-1.2.71-1.63.47-.43,1.02-.64,1.65-.64s1.14.19,1.61.58.7.95.7,1.69-.23,1.28-.68,1.68c-.46.4-1,.61-1.62.61ZM206.37,429.81v13.47c0,.93-.22,1.64-.67,2.12-.44.48-1.01.72-1.69.72s-1.24-.25-1.67-.73c-.43-.49-.64-1.19-.64-2.1v-13.34c0-.92.21-1.62.64-2.08.43-.47.98-.7,1.67-.7s1.25.23,1.69.7.67,1.12.67,1.95Z"/> <path class="cls-12" d="M220.04,429.74v.56c.82-1.08,1.72-1.88,2.69-2.38.97-.51,2.09-.76,3.36-.76s2.33.27,3.3.8c.97.54,1.69,1.29,2.17,2.27.31.57.51,1.18.6,1.84s.14,1.5.14,2.53v8.67c0,.93-.21,1.64-.64,2.12-.43.48-.98.72-1.67.72s-1.26-.25-1.69-.73-.65-1.19-.65-2.1v-7.77c0-1.54-.21-2.71-.64-3.53-.43-.81-1.28-1.22-2.55-1.22-.83,0-1.59.25-2.27.74-.68.5-1.18,1.18-1.5,2.04-.23.69-.34,1.99-.34,3.89v5.84c0,.95-.22,1.65-.66,2.13-.44.47-1,.71-1.7.71s-1.22-.25-1.66-.73-.65-1.19-.65-2.1v-13.47c0-.89.19-1.55.58-1.99.39-.44.92-.66,1.59-.66.41,0,.78.1,1.11.29.33.19.59.48.79.87.2.39.3.86.3,1.42Z"/> <path class="cls-12" d="M258.26,440.35c0,.58-.17,1.2-.52,1.86s-.88,1.29-1.59,1.89c-.71.6-1.61,1.08-2.69,1.44s-2.3.55-3.65.55c-2.88,0-5.13-.84-6.75-2.52-1.62-1.68-2.42-3.93-2.42-6.75,0-1.91.37-3.6,1.11-5.07.74-1.47,1.81-2.6,3.21-3.41s3.07-1.2,5.02-1.2c1.21,0,2.31.18,3.32.53,1.01.35,1.86.81,2.56,1.37s1.24,1.15,1.61,1.79c.37.63.55,1.22.55,1.77s-.21,1.03-.62,1.42c-.42.39-.92.58-1.51.58-.39,0-.71-.1-.96-.3-.26-.2-.54-.52-.86-.96-.57-.87-1.16-1.51-1.78-1.95-.62-.43-1.41-.65-2.37-.65-1.38,0-2.49.54-3.33,1.61-.84,1.08-1.26,2.55-1.26,4.41,0,.88.11,1.68.32,2.42.22.73.53,1.36.94,1.88.41.52.91.91,1.49,1.18.58.27,1.22.4,1.91.4.93,0,1.73-.22,2.4-.65s1.25-1.09,1.77-1.98c.28-.52.59-.93.92-1.23.33-.3.73-.44,1.21-.44.57,0,1.04.22,1.42.65.38.43.56.89.56,1.38Z"/> <path class="cls-12" d="M279.96,437.79h-9.12c.01,1.06.22,1.99.64,2.8.42.81.97,1.42,1.66,1.83.69.41,1.45.61,2.28.61.56,0,1.07-.07,1.53-.2s.91-.34,1.34-.62c.43-.28.83-.58,1.2-.9.36-.32.84-.75,1.42-1.3.24-.2.58-.31,1.02-.31.48,0,.86.13,1.16.39.3.26.44.63.44,1.11,0,.42-.17.91-.5,1.48-.33.56-.83,1.1-1.49,1.62-.67.52-1.5.95-2.51,1.29-1.01.34-2.17.51-3.48.51-2.99,0-5.32-.85-6.98-2.56-1.66-1.71-2.49-4.02-2.49-6.95,0-1.38.2-2.66.61-3.83.41-1.18,1.01-2.19,1.79-3.03.79-.84,1.75-1.49,2.9-1.94s2.42-.67,3.83-.67c1.82,0,3.38.38,4.69,1.15,1.3.77,2.28,1.76,2.93,2.98s.97,2.46.97,3.72c0,1.17-.34,1.93-1.01,2.28-.67.35-1.62.52-2.83.52ZM270.84,435.14h8.45c-.11-1.59-.54-2.79-1.29-3.58s-1.73-1.19-2.95-1.19-2.11.4-2.86,1.2c-.75.8-1.2,1.99-1.36,3.56Z"/> <path class="cls-12" d="M293.69,446.12c-.71,0-1.31-.23-1.83-.68s-.77-1.09-.77-1.91c0-.69.25-1.29.73-1.79s1.09-.75,1.81-.75,1.33.25,1.84.74c.51.5.76,1.1.76,1.8,0,.81-.25,1.44-.76,1.9-.51.46-1.1.69-1.78.69Z"/> <path class="cls-12" d="M324.92,441.66h8.91c.89,0,1.57.18,2.03.55s.7.86.7,1.49c0,.56-.18,1.03-.55,1.42-.37.39-.93.58-1.68.58h-12.57c-.85,0-1.52-.24-2-.71-.48-.47-.72-1.03-.72-1.67,0-.41.15-.95.46-1.63.31-.68.64-1.21,1.01-1.6,1.51-1.57,2.88-2.92,4.1-4.04,1.22-1.12,2.09-1.86,2.61-2.21.93-.66,1.71-1.32,2.33-1.99.62-.67,1.09-1.35,1.42-2.05.33-.7.49-1.39.49-2.06,0-.73-.17-1.38-.52-1.96-.35-.57-.82-1.02-1.42-1.34s-1.25-.48-1.96-.48c-1.49,0-2.66.66-3.52,1.96-.11.17-.31.64-.57,1.4-.27.76-.57,1.35-.91,1.76s-.83.62-1.48.62c-.57,0-1.04-.19-1.42-.56-.38-.38-.56-.89-.56-1.54,0-.79.18-1.61.53-2.46.35-.85.88-1.63,1.58-2.32.7-.69,1.59-1.26,2.66-1.68,1.08-.43,2.34-.64,3.78-.64,1.74,0,3.23.27,4.46.82.8.36,1.5.87,2.1,1.5s1.07,1.37,1.41,2.21.5,1.71.5,2.6c0,1.41-.35,2.7-1.05,3.85-.7,1.16-1.42,2.06-2.14,2.71-.73.66-1.95,1.68-3.66,3.08s-2.89,2.49-3.53,3.26c-.27.31-.55.68-.84,1.11Z"/> <path class="cls-12" d="M361.64,433.41c0,1.87-.11,3.47-.34,4.82-.23,1.34-.65,2.56-1.26,3.66-.77,1.34-1.78,2.38-3,3.11-1.23.73-2.6,1.09-4.1,1.09-1.73,0-3.28-.49-4.65-1.47-1.37-.98-2.41-2.33-3.1-4.06-.35-.95-.61-1.99-.78-3.13-.17-1.14-.25-2.38-.25-3.71,0-1.72.09-3.27.27-4.64.18-1.38.47-2.56.85-3.55.67-1.64,1.65-2.89,2.93-3.75,1.28-.86,2.81-1.29,4.58-1.29,1.17,0,2.24.19,3.19.57.96.38,1.8.94,2.52,1.67s1.33,1.64,1.84,2.72c.87,1.88,1.3,4.54,1.3,7.97ZM356.96,433.07c0-2.08-.13-3.79-.38-5.11-.25-1.33-.67-2.33-1.26-3-.59-.68-1.41-1.02-2.46-1.02-1.5,0-2.55.76-3.13,2.27-.59,1.51-.88,3.85-.88,7,0,2.14.13,3.89.38,5.26s.67,2.4,1.26,3.1,1.39,1.05,2.41,1.05,1.87-.36,2.46-1.09,1.01-1.77,1.25-3.12c.24-1.35.36-3.13.36-5.33Z"/> <path class="cls-12" d="M375.72,441.66h8.91c.89,0,1.57.18,2.03.55s.7.86.7,1.49c0,.56-.18,1.03-.55,1.42-.37.39-.93.58-1.68.58h-12.57c-.85,0-1.52-.24-2-.71-.48-.47-.72-1.03-.72-1.67,0-.41.15-.95.46-1.63.31-.68.64-1.21,1.01-1.6,1.51-1.57,2.88-2.92,4.1-4.04,1.22-1.12,2.09-1.86,2.61-2.21.93-.66,1.71-1.32,2.33-1.99.62-.67,1.09-1.35,1.42-2.05.33-.7.49-1.39.49-2.06,0-.73-.17-1.38-.52-1.96-.35-.57-.82-1.02-1.42-1.34s-1.25-.48-1.96-.48c-1.49,0-2.66.66-3.52,1.96-.11.17-.31.64-.57,1.4-.27.76-.57,1.35-.91,1.76s-.83.62-1.48.62c-.57,0-1.04-.19-1.42-.56-.38-.38-.56-.89-.56-1.54,0-.79.18-1.61.53-2.46.35-.85.88-1.63,1.58-2.32.7-.69,1.59-1.26,2.66-1.68,1.08-.43,2.34-.64,3.78-.64,1.74,0,3.23.27,4.46.82.8.36,1.5.87,2.1,1.5s1.07,1.37,1.41,2.21.5,1.71.5,2.6c0,1.41-.35,2.7-1.05,3.85-.7,1.16-1.42,2.06-2.14,2.71-.73.66-1.95,1.68-3.66,3.08s-2.89,2.49-3.53,3.26c-.27.31-.55.68-.84,1.11Z"/> <path class="cls-12" d="M409.5,424.88h-8.11l-.97,5.53c1.62-.87,3.11-1.3,4.47-1.3,1.09,0,2.11.2,3.07.61.95.41,1.78.98,2.5,1.7.72.72,1.28,1.58,1.69,2.57.41.99.61,2.05.61,3.19,0,1.65-.37,3.15-1.11,4.51-.74,1.36-1.81,2.43-3.2,3.23s-3,1.2-4.82,1.2c-2.04,0-3.69-.38-4.96-1.13s-2.17-1.61-2.7-2.59-.79-1.82-.79-2.55c0-.44.18-.87.55-1.26s.83-.6,1.39-.6c.96,0,1.67.55,2.13,1.66.46,1.01,1.07,1.8,1.84,2.37.77.56,1.64.84,2.6.84.88,0,1.64-.23,2.3-.68s1.17-1.08,1.53-1.88c.36-.8.54-1.7.54-2.71,0-1.09-.19-2.03-.58-2.8-.39-.77-.91-1.35-1.55-1.73-.65-.38-1.37-.57-2.17-.57-.98,0-1.68.12-2.1.36-.42.24-1.03.66-1.82,1.25-.79.6-1.44.9-1.96.9-.56,0-1.05-.2-1.49-.61-.43-.4-.65-.86-.65-1.37,0-.06.06-.44.19-1.16l1.43-8.18c.16-.98.46-1.69.89-2.13.43-.44,1.14-.67,2.12-.67h9.02c1.78,0,2.66.68,2.66,2.03,0,.59-.22,1.07-.65,1.43-.43.37-1.07.55-1.91.55Z"/> </g> <g> <circle class="cls-4" cx="362.74" cy="205.07" r="40.44"/> <circle class="cls-4" cx="217.2" cy="204.59" r="40.44"/> <rect class="cls-12" x="254.74" y="129.17" width="5.47" height="8.29" transform="translate(-18 42.86) rotate(-9.2)"/> <path class="cls-5" d="M217.03,167.34c-20.61,0-37.32,16.71-37.32,37.32,0,20.61,16.71,37.32,37.32,37.32,20.61,0,37.32-16.71,37.32-37.32,0-20.61-16.71-37.32-37.32-37.32ZM217.03,238.93c-18.92,0-34.27-15.34-34.27-34.27,0-18.93,15.34-34.27,34.27-34.27,18.93,0,34.27,15.34,34.27,34.27,0,18.93-15.34,34.27-34.27,34.27Z"/> <path class="cls-5" d="M222.87,205.29c0,3.13-2.54,5.68-5.68,5.68s-5.68-2.54-5.68-5.68c0-3.13,2.54-5.68,5.68-5.68s5.68,2.54,5.68,5.68Z"/> <path class="cls-5" d="M221.13,205.49c0,2.09-1.7,3.79-3.79,3.79s-3.79-1.7-3.79-3.79c0-2.09,1.7-3.79,3.79-3.79,2.09,0,3.79,1.7,3.79,3.79Z"/> <path class="cls-5" d="M362.95,166.04c-21.33,0-38.62,17.29-38.62,38.62,0,21.33,17.29,38.62,38.62,38.62,21.33,0,38.62-17.29,38.62-38.62,0-21.33-17.29-38.62-38.62-38.62ZM362.95,239.01c-18.97,0-34.35-15.38-34.35-34.35,0-18.97,15.38-34.35,34.35-34.35,18.97,0,34.35,15.38,34.35,34.35,0,18.97-15.38,34.35-34.35,34.35Z"/> <path class="cls-5" d="M369.74,204.66c0,3.13-2.54,5.68-5.68,5.68s-5.67-2.54-5.67-5.68c0-3.13,2.54-5.68,5.67-5.68s5.68,2.54,5.68,5.68Z"/> <path class="cls-5" d="M367.85,204.37c0,2.09-1.7,3.79-3.79,3.79s-3.79-1.7-3.79-3.79c0-2.09,1.7-3.79,3.79-3.79,2.09,0,3.79,1.7,3.79,3.79Z"/> <polygon class="cls-12" points="261.99 136.52 253.92 136.52 253.9 136.52 267.93 207.83 274.98 206.5 261.99 136.52"/> <rect class="cls-12" x="346.53" y="118.99" width="5.47" height="89.11" rx="1.79" ry="1.79" transform="translate(-34.74 127.88) rotate(-19.78)"/> <rect class="cls-12" x="261.25" y="143.2" width="81.85" height="4.01"/> <rect class="cls-12" x="263.58" y="178.55" width="90.02" height="4.51" rx="1.47" ry="1.47" transform="translate(-48.36 203.25) rotate(-33.96)"/> <path class="cls-5" d="M283.48,205.83c0,6.42-5.21,11.63-11.63,11.63-6.42,0-11.63-5.21-11.63-11.63,0-6.42,5.21-11.63,11.63-11.63s11.63,5.21,11.63,11.63Z"/> <path class="cls-5" d="M281.19,205.94c0,5.16-4.18,9.34-9.34,9.34-5.16,0-9.34-4.18-9.34-9.34,0-5.16,4.18-9.34,9.34-9.34,5.16,0,9.34,4.18,9.34,9.34Z"/> <path class="cls-12" d="M242.26,121.57s-4.25,1.51-4.36,5.58c0,0,0,5.78,7.82,4.61,0,0,23.85-2.4,23.92-2.41.61-.06,1.46-1.78,1.61-2.24.45-1.38-.43-2.83-1.68-3.39-1.24-.55-2.62-.22-3.91-.04-1.36.2-2.72.26-4.09.27-3.07.02-6.23.16-9.23-.63-3.4-.9-6.44-2.74-10.07-1.75Z"/> <rect class="cls-7" x="330.61" y="117.65" width="12.31" height="4.78" rx="1.56" ry="1.56" transform="translate(-20.64 110.88) rotate(-18.15)"/> <path class="cls-12" d="M348.11,117.77c0,2.05-1.66,3.71-3.71,3.71h0c-2.05,0-3.72-1.66-3.72-3.71h0c0-2.05,1.66-3.71,3.72-3.71h0c2.05,0,3.71,1.66,3.71,3.71h0Z"/> <path class="cls-5" d="M347.32,117.77c0,1.61-1.31,2.92-2.92,2.92h0c-1.62,0-2.92-1.31-2.92-2.92h0c0-1.61,1.31-2.92,2.92-2.92h0c1.61,0,2.92,1.31,2.92,2.92h0Z"/> <path class="cls-5" d="M276.13,205.46c0,2.36-1.92,4.28-4.28,4.28-2.36,0-4.28-1.92-4.28-4.28s1.92-4.28,4.28-4.28c2.36,0,4.28,1.91,4.28,4.28Z"/> <rect class="cls-12" x="270.65" y="205.07" width="2.55" height="23.93"/> <path class="cls-12" d="M279.36,230.77c0,1.54-1.25,2.79-2.79,2.79h-8.66c-1.54,0-2.79-1.25-2.79-2.79h0c0-1.54,1.25-2.79,2.79-2.79h8.66c1.54,0,2.79,1.25,2.79,2.79h0Z"/> <polyline class="cls-6" points="261.25 152.14 217.2 205.46 272.74 205.64"/> <g> <path class="cls-11" d="M273.14,205.64c0,.71-.58,1.28-1.28,1.28s-1.29-.58-1.29-1.28.58-1.28,1.29-1.28,1.28.57,1.28,1.28Z"/> <path class="cls-13" d="M272.89,205.64c0,.57-.47,1.04-1.04,1.04s-1.04-.46-1.04-1.04.46-1.04,1.04-1.04,1.04.46,1.04,1.04Z"/> <path class="cls-14" d="M271.7,205.64c0-.41.24-.77.6-.94-.13-.06-.29-.1-.44-.1-.58,0-1.04.47-1.04,1.04s.46,1.04,1.04,1.04c.16,0,.31-.04.44-.1-.35-.17-.6-.52-.6-.94Z"/> <path class="cls-10" d="M272.74,205.63c0-.31-.15-.59-.39-.76-.24.17-.39.44-.39.76s.15.59.39.76c.24-.17.39-.44.39-.76Z"/> </g> </g> <line class="cls-3" y1="362.25" x2="585.45" y2="362.25"/> </svg>